<svg xmlns="http://www.w3.org/2000/svg" viewBox="0 0 90 90"><defs><style>.cls-1{isolation:isolate;}.cls-2,.cls-3{fill:#1b6372;}.cls-3{mix-blend-mode:multiply;opacity:0.33;}.cls-4{fill:#ffb200;}.cls-5{fill:#f18a1d;}.cls-6{fill:#c5d5d2;}.cls-7{fill:#fff;}</style></defs><g class="cls-1"><g id="Capa_2" data-name="Capa 2"><g id="Layer_1" data-name="Layer 1"><rect class="cls-2" width="90" height="90"/><path class="cls-3" d="M90,36.45C85.63,32,68.71,15.1,68.52,15c-.41-.62-.84-.68-1.66-.68H23.14c-1,0-1.44.07-2,1.26l-3.41,5.71a3.68,3.68,0,0,0-.3.5l-.08.14h0a3.58,3.58,0,0,0-.32,1.46V72.08a3.59,3.59,0,0,0,1.33,2.77C18.51,75,28,84.49,33.51,90H90Z"/><path class="cls-4" d="M72.62,21.93l-3.79-6.35c-.53-1.19-.94-1.26-2-1.26H23.14c-1,0-1.44.07-2,1.26l-3.79,6.35s-.15.83,1.08.83H71.54C72.77,22.76,72.62,21.93,72.62,21.93Z"/><rect class="cls-5" x="17.06" y="19.8" width="55.87" height="55.87" rx="3.59"/><path class="cls-6" d="M51.48,19.8h-13V31.87h1.35c.21-.23.59.24.84.46s.34-.34.61-.46.69.38.91-.38a1,1,0,0,0,.92,0c.31.11.71,1.18.71,1.18l1.06-1.61c.33.63.73,1.38,1,.88.32.58.64.25,1-.07s.61.12.91.35c.29-.2.58-.51.85-.35.57-1.91,1,.79,1.45.68s.44-1.7,1-.68c.11.21.37,0,.37,0Z"/><path class="cls-4" d="M55.53,71h-.15V65.59h.15Zm.34-5.41h-.15V71h.15Zm1.6,0h-.15v4.59h.15Zm.91,0h-.15v4.59h.15Zm1.82,0h-.15v4.59h.15Zm3.09,0h-.15v4.59h.15Zm2.72,0h-.15v4.59H66Zm.34,0H66.2v4.59h.15Zm1.85,0h-.15v4.59h.15Zm1.2,0h-.15V71h.15Zm-6.73,0h-.15V71h.15Zm.29,0h-.15V71H63Zm-6.5,0h-.4V71h.4Zm4.76,0h-.41v4.57h.41Zm-1.35,0H59.3v4.58h.57Zm-3,0h-.24V71h.24Zm1.13,0h-.24v4.59H58Zm1,0h-.24v4.59H59Zm1.56,0h-.24v4.59h.24Zm1.78,0H62v4.57h.4Zm-.64,0h-.23v4.59h.23Zm2.75,0h-.24v4.59h.24Zm5.33,0h-.24V71h.24Zm-4.85,0h-.24v4.59H65Zm-1.06,0h-.44v4.59h.44Zm1.84,0h-.44v4.59h.44Zm1.3,0h-.44v4.59H67Zm.77,0h-.66v4.59h.66Zm1.16,0h-.45V71H69ZM54.4,71h-.59v.92h.59Zm3.72-.35h-.8v1.44h.8Zm1.27,0h-.8v1.44h.8Zm1.28,0h-.81v1.44h.81Zm1.27,0h-.81v1.44h.81Zm2.41,0h-.8v1.44h.8Zm1.28,0h-.81v1.44h.81Zm1.27,0h-.81v1.44h.81Zm1.27,0h-.81v1.44h.81Zm2.49.35h-.58v.92h.58Z"/><path class="cls-6" d="M38.52,75.68h13V65.2h-.37c-.11.13-.26-.2-.42,0s-.32.94-.53.79c-.1.36-.25.34-.4-.06-.16,0-.31.31-.43-.4-.07-.27-.16.11-.26.15s-.22-.05-.36.31-.34-.59-.5-.87c-.17.34-.33.17-.44.46-.14-.38-.3-.12-.45-.11s-.26,1.17-.41,1-.34-.2-.48-.63c-.13-1.06-.23-.5-.23-.55,0,.22-.27.89-.54.81s-.58.65-.58-.08c-.17-.24-.29-1.54-.47-1.35-.18-.54-.36-.19-.52,0-.16-.2-.32,0-.48-.3-.16.11-.31-.23-.47.37s-.37.66-.52.56-.3.14-.45-.42a10.45,10.45,0,0,1-.42,1.57c-.14-.29-.28.47-.42,0-.19.53-.37.44-.54.65-.16-.17-.32-.68-.47-.77-.16-.28-.3-.55-.44-.55s-.33-.69-.45-.53c-.13.43-.27.47-.54-.06-.11-.21-.37,0-.37,0Z"/><path class="cls-4" d="M35.36,72.11H21.74V59.79H35.36Zm-.59-.55V60.34H22.33V71.56Zm-8.38-7.73H25.5v5.42h.89Zm-.45-2.47-1.51,1.89h3Zm4.57,7.89h.89V63.83h-.89Zm-1.06-6h3L31,61.36Zm3.49,6.45H24v.69h9Z"/><polygon class="cls-7" points="50.29 14.32 39.71 14.32 38.52 19.8 51.48 19.8 50.29 14.32"/></g></g></g></svg>