<svg xmlns="http://www.w3.org/2000/svg" viewBox="0 0 180 180"><defs><style>.cls-1{isolation:isolate;}.cls-2,.cls-3{fill:#1b6372;}.cls-3{mix-blend-mode:multiply;opacity:0.33;}.cls-4{fill:#fff;}.cls-5{fill:#456785;}.cls-6{fill:#f18a1d;}.cls-7{fill:#ffb200;}.cls-8{fill:#dd3b4a;}.cls-9{fill:#bd3743;}</style></defs><g class="cls-1"><g id="Capa_2" data-name="Capa 2"><g id="Layer_1" data-name="Layer 1"><polygon class="cls-2" points="90 0 0 0 0 90 0 180 90 180 180 180 180 90 180 0 90 0"/><path class="cls-3" d="M180,180V89.63c-16.94-17.3-60.47-60.95-61.25-60.95H61.25a1.9,1.9,0,0,0-1.9,1.9v22c0,1.51,5.39,6.86,5.39,6.86H45.39L35.21,64.3v14a5,5,0,0,0,2.13,4.07v61.21h-.58a2.83,2.83,0,0,0-2.83,2.82v5L62.61,180H180Z"/><path class="cls-4" d="M142.66,143.54V70a1.37,1.37,0,0,0-1.37-1.37H38.71A1.37,1.37,0,0,0,37.34,70v73.51Z"/><path class="cls-5" d="M42.94,143.54V83.05c0-1.66.8-1.65,1.48-1.65H71.06c.67,0,1.47,0,1.47,1.65v60.49Z"/><path class="cls-4" d="M72,142.37V83.05c0-.6-.17-1.08-.37-1.08H43.84c-.2,0-.37.48-.37,1.08v59.32Z"/><path class="cls-5" d="M44.64,117.46H70.83v23.75H44.64ZM70.83,83.13H44.64v27.33H70.83Z"/><rect class="cls-5" x="80.62" y="81.97" width="57.08" height="49.57"/><rect class="cls-6" x="85.02" y="64.3" width="9.96" height="13.95"/><rect class="cls-6" x="65.1" y="64.3" width="9.96" height="13.95"/><rect class="cls-6" x="45.17" y="64.3" width="9.96" height="13.95"/><polygon class="cls-7" points="55.13 64.3 45.17 64.3 53.57 59.45 61.75 59.45 55.13 64.3"/><polygon class="cls-7" points="75.06 64.3 65.1 64.3 69.94 59.45 78.12 59.45 75.06 64.3"/><polygon class="cls-7" points="94.98 64.3 85.02 64.3 86.3 59.45 94.48 59.45 94.98 64.3"/><polygon class="cls-7" points="114.9 64.3 104.94 64.3 102.67 59.45 110.85 59.45 114.9 64.3"/><polygon class="cls-7" points="134.83 64.3 124.86 64.3 119.03 59.45 127.21 59.45 134.83 64.3"/><polygon class="cls-8" points="45.17 64.3 35.21 64.3 45.39 59.45 53.57 59.45 45.17 64.3"/><polygon class="cls-8" points="65.1 64.3 55.13 64.3 61.75 59.45 69.94 59.45 65.1 64.3"/><polygon class="cls-8" points="85.02 64.3 75.06 64.3 78.12 59.45 86.3 59.45 85.02 64.3"/><polygon class="cls-8" points="104.94 64.3 94.98 64.3 94.48 59.45 102.67 59.45 104.94 64.3"/><polygon class="cls-8" points="124.86 64.3 114.9 64.3 110.85 59.45 119.03 59.45 124.86 64.3"/><polygon class="cls-8" points="144.79 64.3 134.83 64.3 127.21 59.45 135.4 59.45 144.79 64.3"/><path class="cls-9" d="M35.21,64.3v14a5,5,0,0,0,10,0v-14Z"/><path class="cls-9" d="M55.13,64.3v14a5,5,0,0,0,10,0v-14Z"/><path class="cls-9" d="M75.06,64.3v14a5,5,0,1,0,10,0v-14Z"/><rect class="cls-6" x="104.94" y="64.3" width="9.96" height="13.95"/><rect class="cls-6" x="124.86" y="64.3" width="9.96" height="13.95"/><path class="cls-9" d="M144.79,64.3v14a5,5,0,0,1-10,0v-14Z"/><path class="cls-9" d="M124.86,64.3v14a5,5,0,0,1-10,0v-14Z"/><path class="cls-9" d="M104.94,64.3v14a5,5,0,1,1-10,0v-14Z"/><path class="cls-6" d="M36.76,143.54H143.24a2.82,2.82,0,0,1,2.82,2.82v5a0,0,0,0,1,0,0H33.93a0,0,0,0,1,0,0v-5A2.82,2.82,0,0,1,36.76,143.54Z"/><rect class="cls-4" x="64.74" y="54.5" width="2.87" height="4.96"/><rect class="cls-4" x="112.39" y="54.5" width="2.87" height="4.96" transform="translate(227.66 113.95) rotate(180)"/><rect class="cls-9" x="59.35" y="28.68" width="61.3" height="25.81" rx="1.9"/><path class="cls-7" d="M61.25,53a.42.42,0,0,1-.42-.43v-22a.42.42,0,0,1,.42-.42h57.5a.42.42,0,0,1,.42.42v22a.42.42,0,0,1-.42.43Zm56.45-1.48V31.63H62.3V51.54Z"/><path class="cls-4" d="M77,36.69,75.6,38.27a4.07,4.07,0,0,0-2.68-1c-1,0-1.64.43-1.64,1.2s.46,1.1,2.37,1.7c2.32.75,3.64,1.7,3.64,4S75.49,48,72.43,48a6.48,6.48,0,0,1-4.66-1.76l1.49-1.63a4.44,4.44,0,0,0,3.08,1.22c1.2,0,2-.56,2-1.5S73.83,43,72,42.46c-2.75-.85-3.75-2-3.75-3.8,0-2.16,1.87-3.54,4.42-3.54A5.75,5.75,0,0,1,77,36.69Z"/><path class="cls-4" d="M81.79,42.43v5.25h-2.9V35.42h2.9v4.74h3.69V35.42h2.9V47.68h-2.9V42.43Z"/><path class="cls-4" d="M101.18,41.54c0,4-2.07,6.45-5.54,6.45s-5.53-2.36-5.53-6.45,2.08-6.42,5.53-6.42S101.18,37.45,101.18,41.54Zm-8,0c0,3.12.88,4.32,2.48,4.32s2.49-1.2,2.49-4.32-.85-4.3-2.49-4.3S93.16,38.44,93.16,41.54Z"/><path class="cls-4" d="M106.88,35.42c3.17,0,5.12,1.31,5.12,4,0,2.85-2,4.18-4.85,4.18h-1.33v4.08h-2.9V35.42Zm0,6.09a1.83,1.83,0,0,0,2.1-2.09c0-1.31-.72-1.93-2.15-1.93h-1v4Z"/></g></g></g></svg>