<?xml version="1.0" encoding="UTF-8"?>
<svg version="1.1" viewBox="0 0 2048 2048" width="128" height="128" xmlns="http://www.w3.org/2000/svg">
<path transform="translate(134,63)" d="m0 0h226l26 1 13 1 10 3 12 7 11 11 8 14 8 22 10 37 15 65 12 54 8 31 3 9 4 1h1284l32 2 22 3 14 4 20 8 20 11 17 12 11 9 8 7 7 8 11 13 10 15 8 14 8 19 6 18 4 17 1 7v41l-4 29-7 32-7 29-9 39-7 29-9 38-16 68-11 47-13 55-10 42-12 52-9 38-14 59-7 30-10 34-8 20-10 20-10 15-8 10-9 10-10 10-13 10-17 11-19 9-20 7-15 4-21 3-33 2-46 1h-952l-79 1-17 2-9 4-10 9-6 7-8 16-3 9-2 16 4 20 7 14 8 11 8 7 8 5 16 4 10 1 1070 1 27 1 15 2 14 7 12 11 9 14 4 10 2 9v18l-3 14-6 12-8 11-7 8-5 4-10 4-18 2-27 1-1029 1-47-1-23-2-20-4-16-5-15-6-20-11-11-8-11-9-5-4v-2l-4-2-4-4v-2h-2l-7-8-13-17-11-19-8-16-7-20-6-25-1-11v-28l2-19 4-18 5-16 10-24 12-19 6-8 13-16 12-12 17-13 14-9 19-10 19-7 21-5 18-4 1-5-7-31-17-72-10-43-12-50-13-55-15-64-16-68-17-73-10-42-16-68-9-38-14-59-14-60-18-76-9-39-13-58-10-41-4-19h-39l-131 1-43-1-14-2-14-7-8-7-10-14-7-15-2-7v-21l4-15 5-10 11-14 13-10 8-4 6-1z" fill="#000"/>
<path transform="translate(760,1599)" d="m0 0 24 1 24 3 20 5 20 8 17 9 14 10 13 10 12 11 8 8 13 17 9 15 8 15 9 23 5 17 3 19v43l-4 23-8 24-8 18-8 14-12 17-11 13-15 15-16 12-16 10-14 7-20 7-18 5-27 4h-35l-21-3-22-6-21-9-18-10-14-10-11-10-8-7-11-12-10-13-12-19-12-25-7-23-4-21-1-14v-11l2-25 5-24 6-18 9-20 13-21 13-16 7-8 12-12 18-13 21-13 20-9 15-5 20-4z" fill="#000"/>
<path transform="translate(1465,1599)" d="m0 0 33 2 18 3 19 5 21 9 16 9 18 13 14 12 12 12 13 17 8 13 11 21 6 15 6 20 3 20v43l-4 22-6 20-10 23-8 14-12 17-11 13-15 15-19 14-15 9-12 6-30 10-19 4-16 2h-36l-20-3-22-6-19-8-20-11-14-10-10-9-8-7-13-14-12-16-11-19-7-14-7-19-6-25-2-23 1-26 4-24 5-18 9-22 9-16 10-15 11-13 9-10 7-7 17-13 19-12 15-8 18-7 21-5 14-2z" fill="#000"/>
</svg>
