<svg xmlns="http://www.w3.org/2000/svg" viewBox="0 0 90 90"><defs><style>.cls-1{isolation:isolate;}.cls-2,.cls-3{fill:#1b6372;}.cls-3{mix-blend-mode:multiply;opacity:0.33;}.cls-4{fill:#f18a1d;}.cls-5{fill:#ffb200;}.cls-6{fill:#dd3b4a;}.cls-7{fill:#3c3d3f;}.cls-8{fill:#c5d5d2;}.cls-9{fill:#fff;}.cls-10{fill:#52beda;}</style></defs><g class="cls-1"><g id="Capa_2" data-name="Capa 2"><g id="Layer_1" data-name="Layer 1"><rect class="cls-2" width="90" height="90"/><path class="cls-3" d="M90,41.56c-6.19-6.24-28.75-28.77-28.93-28.91a2.55,2.55,0,0,0-2.4-1l-34,5.41A2.55,2.55,0,0,0,22.52,20l.72,4.52-.13-.1c-.23-.25-5.37-5.39-5.5-5.5a6,6,0,0,0-2.95-1.8c-.21-.18-.8-.86-1.11-1.09A2.76,2.76,0,0,0,11.37,15a2.81,2.81,0,0,0-1.72,5c.17.21,8.76,8.8,9,9,0,0,0,0,0,0l5.95,28.37a6.65,6.65,0,0,0-4.22,4,5.93,5.93,0,0,0,.41,5.22l.13.23a6,6,0,0,0,1.2,1.44c.13.14,3.8,3.82,4,4l.1.12a3.86,3.86,0,0,0-.57,2,3.9,3.9,0,0,0,1.42,3c.21.25,8.37,8.41,12.57,12.59H90Z"/><rect class="cls-4" x="24.99" y="14.15" width="39.54" height="39.54" rx="2.54" transform="translate(-4.77 7.45) rotate(-9.04)"/><path class="cls-5" d="M46.18,13.68l-9,1.44,1.34,8.43.25,0,.3,0,.39-.07c.12-.18.44.1.63.23s.21-.28.38-.39.52.19.59-.37a.7.7,0,0,0,.65-.1c.23,0,.63.75.63.75l.56-1.25c.3.4.66.89.83.5.29.37.47.1.65-.15s.45,0,.68.14c.18-.17.35-.42.55-.34.19-1.4.82.44,1.09.31s.12-1.23.62-.58c.09.14.25,0,.25,0Z"/><path class="cls-5" d="M43.34,54.17l9-1.44-1.17-7.32-.25,0c-.07.1-.2-.11-.3,0s-.12.7-.28.61c0,.27-.14.27-.29,0-.1,0-.18.25-.34-.23-.08-.18-.1.09-.17.13s-.16,0-.21.26-.3-.38-.45-.55c-.08.25-.21.15-.25.37-.15-.25-.22-.05-.33,0s-.05.84-.18.74-.25-.11-.4-.39c-.21-.72-.22-.33-.23-.36,0,.16-.09.65-.28.63s-.34.51-.42,0c-.14-.15-.37-1-.48-.89-.18-.36-.27-.1-.36,0-.14-.13-.22,0-.37-.16-.1.09-.25-.13-.29.31s-.18.5-.3.45-.19.13-.36-.24a6.85,6.85,0,0,1-.12,1.14c-.13-.19-.14.36-.29.08-.07.39-.21.34-.3.51-.14-.1-.3-.44-.42-.49s-.27-.34-.36-.33-.31-.44-.38-.32c0,.32-.14.36-.39,0-.09-.14-.25,0-.25,0Z"/><path class="cls-6" d="M29.62,78.34a3.94,3.94,0,1,1,3.93-3.93A3.93,3.93,0,0,1,29.62,78.34Z"/><path class="cls-7" d="M29.62,76.4a2,2,0,1,1,2-2A2,2,0,0,1,29.62,76.4Z"/><path class="cls-8" d="M29.61,75.68a1.23,1.23,0,0,1-.88-.37,40.24,40.24,0,0,1-2.28-4.46l-.5-1h4.94v4.61a1.22,1.22,0,0,1-.4.91,1.27,1.27,0,0,1-.88.34Z"/><path class="cls-7" d="M29.62,75a.61.61,0,1,1,.6-.6A.6.6,0,0,1,29.62,75Z"/><path class="cls-6" d="M59.67,78.34a3.94,3.94,0,1,1,3.93-3.93A3.94,3.94,0,0,1,59.67,78.34Z"/><path class="cls-7" d="M59.67,76.4a2,2,0,1,1,2-2A2,2,0,0,1,59.67,76.4Z"/><path class="cls-8" d="M59.66,75.68a1.26,1.26,0,0,1-.89-.37,44.26,44.26,0,0,1-2.28-4.46l-.5-1h4.95v4.61a1.22,1.22,0,0,1-.4.91,1.31,1.31,0,0,1-.88.34Z"/><path class="cls-7" d="M59.67,75a.61.61,0,1,1,.6-.6A.6.6,0,0,1,59.67,75Z"/><path class="cls-8" d="M63.38,35.09V29.3h-.94v5.79H55.65V29.3h-.94v5.79H47.93V29.3H47v5.79H40.2V29.3h-.94v5.79H32.48V29.3h-.94v5.79H24.75V29.3h-.94v5.79H21.47l.2.94h2.14v6.79h-.72l.2.94h.52v2.48l1.1,5.24h6.63v4.73l.94-.14V51.48h6.78V55l.94-.14V51.48H47v2.33l.94-.14V51.48h6.78v1.13l.94-.15v-1H62l4.34-.67a3.9,3.9,0,0,0,.9-.27H63.38V43.76h6.23v-.94H63.38V36h6.23v-.94ZM31.54,50.54H24.75V43.76h6.79Zm0-7.72H24.75V36h6.79Zm7.72,7.72H32.48V43.76h6.78Zm0-7.72H32.48V36h6.78ZM47,50.54H40.2V43.76H47Zm0-7.72H40.2V36H47Zm7.72,7.72H47.93V43.76h6.78Zm0-7.72H47.93V36h6.78Zm7.73,7.72H55.65V43.76h6.79Zm0-7.72H55.65V36h6.79Z"/><path class="cls-8" d="M20.25,27.52,19,21.68a6,6,0,0,0-5.87-4.77h-.74v1.84h.74a4.19,4.19,0,0,1,4.07,3.3l1.14,5.47h0l6.27,29.89a6.65,6.65,0,0,0-4.22,4,5.93,5.93,0,0,0,.41,5.22l.13.23a6,6,0,0,0,5.18,3H60.49a.92.92,0,0,0,0-1.84H26.14a4.19,4.19,0,0,1-3.59-2.06l-.13-.23a4.16,4.16,0,0,1-.29-3.62A4.81,4.81,0,0,1,25.89,59l40.05-6.23A6,6,0,0,0,71,46.82V27.52Zm48.92,19.3a4.14,4.14,0,0,1-3.51,4.11L26.44,57l-5.8-27.66H69.17Z"/><circle class="cls-6" cx="11.37" cy="17.78" r="2.81"/><path class="cls-7" d="M12.41,17.78a1,1,0,1,1-1-1A1,1,0,0,1,12.41,17.78Z"/><circle class="cls-9" cx="69.2" cy="48.27" r="12.25" transform="translate(6.25 104.45) rotate(-76.65)"/><circle class="cls-10" cx="69.2" cy="48.27" r="10.82"/><polygon class="cls-9" points="75.68 46.71 70.75 46.71 70.75 41.78 67.64 41.78 67.64 46.71 62.71 46.71 62.71 49.82 67.64 49.82 67.64 54.75 70.75 54.75 70.75 49.82 75.68 49.82 75.68 46.71"/></g></g></g></svg>